<svg xmlns="http://www.w3.org/2000/svg" viewBox="0 0 500 500" width="500" height="500" role="img" aria-label="ErrLogs">
  <path d="M201.66 68.60 L185.55 71.53 L174.80 75.44 L161.62 82.28 L140.63 96.92 L136.23 98.39 L121.58 99.85 L98.14 103.76 L81.05 108.15 L71.78 111.57 L63.96 115.48 L56.15 120.85 L46.14 131.84 L39.79 143.07 L33.45 159.67 L29.05 177.25 L25.15 205.57 L22.71 244.63 L22.22 317.87 L23.68 385.74 L26.12 406.25 L28.56 416.50 L30.03 419.43 L32.71 422.12 L35.64 423.58 L44.43 424.07 L49.80 422.12 L53.47 418.46 L54.93 415.04 L55.91 408.69 L55.91 400.88 L54.44 368.65 L56.88 330.08 L61.28 307.62 L65.19 296.39 L69.58 287.60 L73.97 281.25 L79.59 275.63 L87.89 270.26 L94.24 267.82 L103.03 265.87 L117.19 265.38 L128.91 267.33 L140.14 272.71 L148.19 280.76 L155.03 293.46 L160.89 313.48 L164.79 335.45 L173.58 410.16 L175.54 416.02 L180.18 420.65 L184.57 422.61 L191.89 424.07 L222.66 424.07 L228.52 422.61 L231.20 419.43 L233.15 409.18 L233.15 366.70 L234.13 358.89 L236.57 349.61 L242.43 339.84 L250.49 332.76 L255.37 330.32 L264.65 327.88 L286.13 326.42 L310.06 326.42 L327.15 327.39 L338.87 330.81 L346.19 335.21 L352.29 341.31 L355.71 346.68 L359.62 356.93 L361.57 369.63 L361.57 416.02 L363.04 419.92 L365.72 423.10 L370.12 424.56 L396.48 425.05 L401.86 424.07 L407.71 421.63 L412.35 417.48 L414.79 414.06 L417.24 407.71 L419.19 397.46 L427.49 319.34 L431.40 266.60 L432.37 240.23 L431.88 214.36 L428.96 188.96 L425.54 174.32 L422.61 165.53 L414.79 148.93 L405.52 135.74 L392.09 122.31 L378.42 113.04 L361.82 105.22 L343.26 99.85 L326.17 96.92 L315.43 95.95 L293.95 95.46 L284.67 96.44 L277.34 98.39 L276.61 99.12 L276.61 102.05 L280.03 117.68 L281.98 137.21 L281.49 164.55 L278.56 186.52 L274.17 205.08 L264.89 229.98 L259.03 240.72 L249.76 253.42 L238.77 263.43 L230.47 268.80 L219.73 273.19 L209.96 275.15 L197.75 275.15 L185.55 272.22 L171.88 264.89 L166.99 260.99 L155.52 249.02 L148.19 238.77 L146.24 234.38 L145.75 229.00 L147.71 223.63 L151.37 219.97 L154.79 218.51 L161.13 218.51 L165.04 219.97 L168.21 222.66 L177.98 236.33 L185.06 243.41 L188.48 245.85 L196.78 249.27 L201.66 250.24 L207.52 250.24 L213.38 249.27 L219.73 246.83 L226.07 242.43 L232.67 235.35 L237.55 228.03 L242.92 217.29 L250.24 195.80 L253.17 182.13 L255.13 167.48 L255.62 142.58 L254.15 127.93 L249.27 106.93 L246.34 98.14 L241.94 88.38 L236.57 81.05 L232.91 77.39 L226.07 73.00 L213.38 69.09 Z M199.95 45.41 L218.26 45.65 L234.86 50.05 L246.09 55.91 L252.44 60.79 L260.25 68.60 L265.63 71.04 L302.25 71.53 L337.40 74.46 L362.79 79.83 L375.98 84.23 L386.23 88.62 L396.48 93.99 L408.69 101.81 L424.07 115.23 L435.79 129.88 L449.46 150.88 L460.69 169.92 L469.48 187.99 L476.81 205.57 L485.60 233.89 L490.97 263.18 L493.41 291.99 L497.80 305.18 L499.76 315.43 L499.76 326.66 L498.78 333.50 L493.90 349.12 L489.01 358.89 L484.38 364.01 L477.78 357.42 L472.41 350.59 L464.60 335.94 L462.65 327.64 L463.13 315.92 L465.09 310.06 L473.88 294.43 L473.39 278.32 L471.44 263.67 L467.53 246.58 L461.18 229.00 L456.79 222.17 L456.30 255.86 L450.44 338.87 L447.02 373.54 L443.12 399.41 L438.72 419.92 L434.33 430.18 L431.40 434.57 L424.80 441.16 L419.43 444.58 L411.13 448.00 L400.88 449.95 L372.07 449.46 L362.79 448.00 L358.40 446.53 L353.52 444.09 L348.14 440.19 L341.06 431.15 L337.16 418.46 L337.16 364.75 L334.72 358.89 L330.57 354.25 L325.68 351.81 L319.82 350.83 L273.93 351.81 L268.07 352.78 L265.63 353.76 L263.43 355.96 L260.99 361.82 L260.01 367.68 L259.52 379.88 L260.50 410.16 L259.03 421.39 L256.59 429.20 L252.69 436.04 L249.02 440.19 L242.68 444.58 L236.82 447.02 L225.59 449.46 L206.05 450.44 L183.11 448.49 L170.90 445.07 L166.02 442.63 L157.47 435.06 L154.05 430.18 L149.66 417.97 L147.71 402.34 L147.22 387.21 L144.29 352.54 L140.87 328.61 L136.47 310.06 L134.52 304.20 L128.17 293.46 L124.51 290.77 L118.65 289.31 L106.45 289.79 L101.56 291.26 L95.70 294.68 L89.60 302.25 L85.69 310.06 L83.25 317.38 L79.83 333.98 L77.88 355.96 L77.88 389.65 L78.86 399.41 L78.37 416.50 L76.42 424.80 L71.04 435.55 L65.43 441.65 L61.52 444.58 L54.69 448.00 L46.88 449.95 L36.62 449.95 L26.86 447.51 L19.53 443.60 L12.45 437.01 L8.54 431.15 L3.17 416.50 L1.22 405.76 L0.24 394.04 L-0.24 236.82 L1.22 195.31 L3.66 170.41 L7.57 151.86 L14.89 131.84 L20.26 122.07 L26.12 113.77 L39.06 100.34 L49.80 92.53 L62.99 85.69 L74.22 81.79 L89.36 78.37 L105.96 76.42 L118.16 75.93 L129.88 73.97 L146.97 62.74 L163.57 54.44 L182.13 48.10 Z" fill-rule="evenodd" fill="#7483c4" stroke="#2c3a73" stroke-width="3.2" stroke-linejoin="round"/>
  <g font-family="DejaVu Sans, Arial, Helvetica, sans-serif" font-weight="bold" paint-order="stroke" stroke="#ffffff" stroke-width="9" stroke-linejoin="round" letter-spacing="1">
    <text x="95" y="215" font-size="82" fill="#e2574c">Err</text>
    <text x="210" y="300" font-size="82" fill="#2c3a73">Logs</text>
  </g>
</svg>
